/* XPM */
static char * wall2_xpm[] = {
"32 32 61 1",
" 	c #1A61E0",
".	c #8499E7",
"+	c #5E7EE3",
"@	c #8B9EE8",
"#	c #768EE6",
"$	c #6D88E5",
"%	c #4A73E2",
"&	c #5478E3",
"*	c #708AE5",
"=	c #4370E2",
"-	c #94A5EA",
";	c #E3E6F8",
">	c #C9CFF3",
",	c #5B7CE3",
"'	c #D5DAF5",
")	c #8D9FE9",
"!	c #FFFFFF",
"~	c #6C87E5",
"{	c #6F89E5",
"]	c #FBFBFE",
"^	c #99A9EA",
"/	c #A9B5ED",
"(	c #FBFCFE",
"_	c #5076E2",
":	c #F8F9FD",
"<	c #F9FAFD",
"[	c #6986E4",
"}	c #92A3E9",
"|	c #9EACEB",
"1	c #3F6DE1",
"2	c #FDFDFF",
"3	c #D3D8F5",
"4	c #D1D7F4",
"5	c #8A9DE8",
"6	c #D8DDF6",
"7	c #E0E4F7",
"8	c #ACB7ED",
"9	c #9BAAEB",
"0	c #8095E7",
"a	c #99A8EA",
"b	c #EDEFFB",
"c	c #A4B1EC",
"d	c #A6B3EC",
"e	c #A1AFEB",
"f	c #F2F3FC",
"g	c #3369E1",
"h	c #CBD1F3",
"i	c #FAFAFE",
"j	c #899CE8",
"k	c #96A6EA",
"l	c #F1F3FC",
"m	c #869AE8",
"n	c #B6C0EF",
"o	c #EEF0FB",
"p	c #F7F8FD",
"q	c #C2CAF1",
"r	c #5277E3",
"s	c #A2B0EC",
"t	c #AEB9EE",
"u	c #C1C9F1",
"v	c #B3BEEF",
"                                ",
"                                ",
"                                ",
"                                ",
"                                ",
"                                ",
"                                ",
"                                ",
"                                ",
"             .+                 ",
"           @#$%&*=              ",
"         -;>     ,')            ",
"       #;!!~      {]^           ",
"      /(!!!_       :<[          ",
"     }!!!!!|      12!3          ",
"     4!!!!!:5     )!!!$         ",
"     6!!!!!!!7890ab!!!c         ",
"     6!!!!!!!!!!!!!!!!d         ",
"     6!!!!!!!!!!!!!!!!d         ",
"     6!!!!!!!!!!!!!!!!e         ",
"     6!!!!!!!!!!!!!!!!.         ",
"     6!!!!!!!!!!!!!!!!&         ",
"     6!!!!!!!!!!!!!!!fg         ",
"     h!!!!!!!!!!!!!!ij          ",
"     k!!!!!!!!!!!!!lm           ",
"      nop!!!!!!!!pqr            ",
"          ,mstuv}g              ",
"                                ",
"                                ",
"                                ",
"                                ",
"                                "};
